<svg id="Capa_1" fill="#fff" enable-background="new 0 0 512 512" height="512" viewBox="0 0 512 512" width="512" xmlns="http://www.w3.org/2000/svg"><g><path d="m467 391.393c-19.555 0-36.228 12.541-42.42 30h-126.16c-4.527-12.764-14.656-22.893-27.42-27.42v-30.915h157.635c24.813 0 45-20.186 45-45v-61.223c0-21.594-15.291-39.677-35.612-44.008v-31.989c20.321-4.331 35.612-22.414 35.612-44.008v-61.223c0-24.813-20.187-45-45-45h-345.27c-24.813 0-45 20.187-45 45v61.223c0 21.594 15.291 39.677 35.612 44.008v31.989c-20.321 4.331-35.612 22.414-35.612 44.008v61.223c0 24.814 20.187 45 45 45h157.635v30.915c-12.764 4.527-22.893 14.656-27.42 27.42h-126.16c-6.192-17.459-22.865-30-42.42-30-24.813 0-45 20.186-45 45 0 24.813 20.187 45 45 45 19.555 0 36.228-12.541 42.42-30h126.16c6.192 17.459 22.865 30 42.42 30s36.228-12.541 42.42-30h126.16c6.192 17.459 22.865 30 42.42 30 24.814 0 45-20.187 45-45 0-24.814-20.186-45-45-45zm-58.978-209.563v30.005h-304.044v-30.005zm-339.657-45v-61.223c0-8.271 6.729-15 15-15h345.27c8.272 0 15 6.729 15 15v61.223c0 8.271-6.728 15-15 15h-345.27c-8.271 0-15-6.728-15-15zm0 181.228v-61.223c0-8.271 6.729-15 15-15h345.27c8.272 0 15 6.729 15 15v61.223c0 8.272-6.728 15-15 15h-345.27c-8.271 0-15-6.729-15-15zm-23.365 133.335c-8.271 0-15-6.729-15-15 0-8.272 6.729-15 15-15s15 6.728 15 15c0 8.271-6.729 15-15 15zm211 0c-8.271 0-15-6.729-15-15 0-8.272 6.729-15 15-15 8.272 0 15 6.728 15 15 0 8.271-6.728 15-15 15zm211 0c-8.272 0-15-6.729-15-15 0-8.272 6.728-15 15-15s15 6.728 15 15c0 8.271-6.728 15-15 15z"/><path d="m292.88 283.872c-1.277-6.148-6.269-10.962-12.5-11.898-6.189-.93-12.493 2.243-15.43 7.768-2.948 5.547-2.09 12.463 2.109 17.132 4.195 4.664 11.074 6.167 16.85 3.779 6.499-2.687 10.406-9.86 8.971-16.781z"/><path d="m352.88 283.872c-1.278-6.15-6.271-10.963-12.504-11.898-6.188-.929-12.49 2.244-15.426 7.768-2.948 5.547-2.09 12.462 2.109 17.132 4.195 4.664 11.074 6.167 16.85 3.779 6.497-2.687 10.406-9.86 8.971-16.781z"/><path d="m412.88 283.872c-1.277-6.146-6.268-10.961-12.497-11.898-6.19-.932-12.496 2.242-15.433 7.768-2.947 5.545-2.088 12.465 2.109 17.132 4.195 4.664 11.074 6.167 16.85 3.779 6.497-2.687 10.406-9.86 8.971-16.781z"/><path d="m218.175 272.363h-104.249c-8.284 0-15 6.716-15 15s6.716 15 15 15h104.249c8.284 0 15-6.716 15-15s-6.716-15-15-15z"/><path d="m263.47 108.513c1.176 6.148 6.34 10.971 12.496 11.898 6.186.931 12.502-2.242 15.433-7.769 2.931-5.526 2.108-12.495-2.11-17.14-4.211-4.638-11.063-6.171-16.85-3.78-6.499 2.687-10.404 9.872-8.969 16.791z"/><path d="m323.47 108.513c1.2 6.273 6.555 11.165 12.863 11.948 6.33.786 12.695-2.683 15.396-8.476 2.706-5.803 1.432-12.835-3.209-17.271-4.342-4.152-10.948-5.261-16.423-2.838-6.303 2.789-10.034 9.85-8.627 16.637z"/><path d="m383.47 108.513c1.176 6.148 6.34 10.971 12.496 11.898 6.184.931 12.503-2.243 15.433-7.769 2.932-5.529 2.11-12.493-2.11-17.14-4.211-4.638-11.063-6.171-16.85-3.78-6.499 2.687-10.404 9.872-8.969 16.791z"/><path d="m113.926 120.363h104.249c8.284 0 15-6.716 15-15s-6.716-15-15-15h-104.249c-8.284 0-15 6.716-15 15s6.716 15 15 15z"/></g></svg>